<svg width="27" height="37" viewBox="0 0 27 37" fill="none" xmlns="http://www.w3.org/2000/svg">
<g id="S 1" clip-path="url(#clip0_1_26)">
<g id="Group">
<g id="Layer 2">
<g id="Elements">
<g id="Logo">
<path id="Vector" d="M20.2107 0.539082C16.7919 -0.368573 13.166 -0.132397 9.89686 1.21087C6.62773 2.55414 3.89871 4.92919 2.13429 7.96659C0.369871 11.004 -0.331025 14.5334 0.140625 18.0059C0.612276 21.4784 2.23003 24.6993 4.74225 27.1675L22.6286 9.46535C23.2974 8.8029 23.7782 7.97788 24.0229 7.07319C24.2675 6.1685 24.2673 5.21601 24.0223 4.31142C23.7773 3.40684 23.296 2.58202 22.627 1.91984C21.9579 1.25767 21.1246 0.781466 20.2107 0.539082Z" fill="url(#paint0_linear_1_26)"/>
<path id="Vector_2" d="M6.78875 36.4596C10.2096 37.3702 13.8386 37.1355 17.1107 35.792C20.3827 34.4485 23.1142 32.0718 24.8796 29.0318C26.6451 25.9918 27.3455 22.4592 26.8717 18.9842C26.398 15.5092 24.7767 12.2868 22.2603 9.81885L4.37394 27.5333C3.70514 28.1956 3.22416 29.0204 2.97933 29.9249C2.7345 30.8294 2.73443 31.7817 2.97913 32.6862C3.22383 33.5908 3.70469 34.4156 4.3734 35.078C5.0421 35.7403 5.87512 36.2168 6.78875 36.4596Z" fill="url(#paint1_linear_1_26)"/>
<path id="Vector_3" style="mix-blend-mode:multiply" d="M22.2603 9.81885L4.37394 27.5333C3.70514 28.1956 3.22416 29.0204 2.97933 29.9249C2.7345 30.8294 2.73443 31.7817 2.97913 32.6862C3.22383 33.5908 3.70469 34.4156 4.3734 35.078C5.0421 35.7403 5.87512 36.2168 6.78875 36.4596C8.70142 36.9645 10.6917 37.1164 12.6599 36.9076C4.81723 29.4388 22.2603 9.81885 22.2603 9.81885Z" fill="url(#paint2_linear_1_26)"/>
<g id="Group_2" style="mix-blend-mode:multiply">
<path id="Vector_4" style="mix-blend-mode:multiply" d="M6.46017 36.362C3.92136 28.5802 19.1697 12.9094 21.8604 10.2275L4.37395 27.5339C3.72563 28.1758 3.25344 28.9707 3.00202 29.8436C2.7506 30.7165 2.72826 31.6384 2.93711 32.5222C3.14597 33.406 3.57912 34.2224 4.19559 34.8943C4.81207 35.5662 5.5915 36.0714 6.46017 36.362Z" fill="url(#paint3_linear_1_26)"/>
<path id="Vector_5" style="mix-blend-mode:multiply" d="M22.2014 9.88984C22.22 9.86941 22.2396 9.84995 22.2603 9.83154L22.2014 9.88984Z" fill="url(#paint4_linear_1_26)"/>
</g>
<path id="Vector_6" style="mix-blend-mode:screen" d="M23.9404 7.36426L4.72113 27.1561L22.6292 9.46618C23.2273 8.87751 23.6766 8.15732 23.9404 7.36426Z" fill="url(#paint5_radial_1_26)"/>
</g>
</g>
</g>
</g>
</g>
<defs>
<linearGradient id="paint0_linear_1_26" x1="16.4102" y1="-16.6936" x2="10.5876" y2="20.6652" gradientUnits="userSpaceOnUse">
<stop stop-color="#0096D9"/>
<stop offset="1" stop-color="#00C198"/>
</linearGradient>
<linearGradient id="paint1_linear_1_26" x1="9.13537" y1="13.6177" x2="18.5045" y2="32.4244" gradientUnits="userSpaceOnUse">
<stop stop-color="#002DD9"/>
<stop offset="1" stop-color="#00B2AB"/>
</linearGradient>
<linearGradient id="paint2_linear_1_26" x1="23.8071" y1="-3.42481" x2="6.08252" y2="38.1709" gradientUnits="userSpaceOnUse">
<stop stop-color="#3482C0"/>
<stop offset="0.45" stop-color="#96BEDE"/>
<stop offset="0.83" stop-color="#E1EDF6"/>
<stop offset="1" stop-color="white"/>
</linearGradient>
<linearGradient id="paint3_linear_1_26" x1="1361.37" y1="132.275" x2="-132.261" y2="2238.51" gradientUnits="userSpaceOnUse">
<stop stop-color="#3482C0"/>
<stop offset="0.45" stop-color="#96BEDE"/>
<stop offset="0.83" stop-color="#E1EDF6"/>
<stop offset="1" stop-color="white"/>
</linearGradient>
<linearGradient id="paint4_linear_1_26" x1="25.6732" y1="3.26808" x2="10.5951" y2="32.7125" gradientUnits="userSpaceOnUse">
<stop stop-color="#569FA1"/>
<stop offset="0.36" stop-color="#97C4C5"/>
<stop offset="0.8" stop-color="#E2EEEF"/>
<stop offset="1" stop-color="white"/>
</linearGradient>
<radialGradient id="paint5_radial_1_26" cx="0" cy="0" r="1" gradientUnits="userSpaceOnUse" gradientTransform="translate(21.5938 32.3818) scale(27.8184 27.5367)">
<stop stop-color="#FFFF00"/>
<stop offset="1"/>
</radialGradient>
<clipPath id="clip0_1_26">
<rect width="27" height="37" fill="white"/>
</clipPath>
</defs>
</svg>
